<?xml version="1.0" encoding="utf-8"?>
<!-- Generator: Adobe Illustrator 24.3.0, SVG Export Plug-In . SVG Version: 6.00 Build 0)  -->
<svg version="1.1" id="eksisozluk" xmlns="http://www.w3.org/2000/svg" xmlns:xlink="http://www.w3.org/1999/xlink" x="0px" y="0px"
	 viewBox="0 0 219.6 36" style="enable-background:new 0 0 219.6 36;" xml:space="preserve">
<style type="text/css">
	.st0{fill:#81C14B;}
	.st1{fill:#FFFFFF;}
	.st2{fill:#FC9E01;}
	.st3{fill:none;}
	.st4{fill:#391A49;}
	.st5{opacity:0.25;}
	.st6{fill:#FFE769;}
	.st7{fill:#FDBC0A;}
	.st8{clip-path:url(#SVGID_2_);}
	.st9{clip-path:url(#SVGID_4_);}
	.st10{fill:#703900;}
</style>
<g id="sozluk">
	<path class="st0" d="M122,26.9c-2-0.1-4-0.6-5.7-1.6l1.3-2.7c1.1,0.7,3.1,1.6,4.7,1.6c0.9,0.1,1.8-0.6,1.9-1.6l0,0
		c0-1-0.7-1.5-2.2-1.7l-1.7-0.3c-1-0.2-1.9-0.7-2.6-1.4c-0.5-0.7-0.8-1.6-0.8-2.5c0-2.8,2.2-4.6,5.4-4.6c1.8,0,3.5,0.5,5,1.3
		l-1.2,2.5c-1-0.6-2.2-1-3.4-1c-1.1,0-1.8,0.6-1.8,1.4c0,0.7,0.5,1.1,1.8,1.4l1.7,0.4c1.7,0.4,2.3,1,2.8,1.6
		c0.5,0.7,0.8,1.5,0.8,2.4C128,24.9,125.6,26.9,122,26.9z"/>
	<path class="st0" d="M140.7,24.8c-1.2,1.3-2.9,2.1-4.6,2c-3.8,0-6.3-2.9-6.3-7.3s2.5-7.4,6.3-7.4c1.8-0.1,3.6,0.7,4.8,2.1
		c1.1,1.3,1.6,2.9,1.6,5.2C142.5,21.8,141.9,23.5,140.7,24.8z M133.2,11.1c-1.2,0-2.1-1-2.1-2.1c0-1.2,1-2.1,2.1-2.1
		c1.2,0,2.1,1,2.1,2.1C135.3,10.2,134.3,11.1,133.2,11.1L133.2,11.1z M137.7,15.6c-0.7-0.9-2-1-2.8-0.3c-0.3,0.3-0.5,0.6-0.7,1
		c-0.5,2.2-0.5,4.5,0.1,6.7c0.3,0.7,1.1,1.2,1.9,1.1c1.6,0,2.3-1.4,2.3-4.8C138.5,17.5,138.2,16.2,137.7,15.6z M139,11.1
		c-1.2,0-2.1-1-2.1-2.1c0-1.2,1-2.1,2.1-2.1c1.2,0,2.1,1,2.1,2.1C141.1,10.2,140.1,11.1,139,11.1L139,11.1z"/>
	<path class="st0" d="M154.3,26.5h-10.4v-2.3l6.6-9.2h-6.1v-2.6h10.5v2.5l-6.2,9h6.5L154.3,26.5z"/>
	<path class="st0" d="M161.5,26.8c-1.6,0-2.8-0.7-3.3-1.9c-0.3-0.7-0.3-1.1-0.3-3.2V11.2c0-1.4,0-2.8-0.2-4.2l3.8-0.9
		c0.2,1.2,0.2,2.4,0.2,3.7v11c0,2.4,0,2.8,0.2,3.1s0.4,0.4,0.7,0.4c0.1,0,0.3,0,0.4-0.1l0.6,2.2C163,26.7,162.3,26.8,161.5,26.8z"/>
	<path class="st0" d="M174.2,26.9c-0.5-0.3-0.9-0.8-1.1-1.4c-1,0.9-2.3,1.4-3.7,1.3c-2,0-3.7-0.9-4.2-2.3c-0.3-0.9-0.4-1.9-0.3-2.8
		v-9l3.6-0.7v9c-0.1,0.8,0,1.6,0.3,2.3c0.3,0.4,0.8,0.7,1.3,0.7c0.9,0,1.8-0.5,2.3-1.3v-9.9l3.5-0.7v10.8c0,0.9,0.3,1.8,0.9,2.6
		L174.2,26.9z M167.4,11.1c-1.2,0-2.1-1-2.1-2.1c0-1.2,1-2.1,2.1-2.1c1.2,0,2.1,1,2.1,2.1C169.6,10.2,168.6,11.1,167.4,11.1z
		 M173.4,11.1c-1.2,0-2.1-1-2.1-2.1c0-1.2,1-2.1,2.1-2.1c1.2,0,2.1,1,2.1,2.1C175.5,10.2,174.6,11.1,173.4,11.1L173.4,11.1z"/>
	<path class="st0" d="M179,26.5V10.6c0-1.2-0.1-2.4-0.2-3.7l3.7-0.9c0.2,1.5,0.3,3.1,0.2,4.6v15.9H179L179,26.5z M187.5,26.5l-4.7-8
		l3.6-6.1h4.4l-4.5,5.9l5.5,8.2H187.5L187.5,26.5z"/>
</g>
<g>
	<path d="M62.3,24.6c0.4,0.7,0.3,0.9-0.5,0.9h-1.3c-0.9,0-1.1-0.1-1.3-0.7l-1.6-3.4c-0.4-0.8-1-1.2-2-1.2h-1.5v4.5
		c0,0.6-0.2,0.8-0.8,0.8H52c-0.6,0-0.8-0.2-0.8-0.8V7.5c0-0.6,0.2-0.8,0.8-0.8h1.3c0.6,0,0.8,0.2,0.8,0.8v9.9h1.1h0.2l3.5-4.5
		c0.4-0.5,0.6-0.6,1.5-0.6h1.2c0.8,0,1,0.3,0.5,0.9L58.3,18c0.7,0.4,1.3,1.1,1.8,2.1L62.3,24.6z"/>
	<path d="M70.9,12c0.6,0,0.8,0.2,0.8,0.8v1.1c0,0.6-0.2,0.8-0.8,0.8H70c-0.9,0-1.8,0.1-2.4,0.3c-0.2,0-0.3,0.1-0.3,0.3v9.5
		c0,0.6-0.2,0.8-0.8,0.8h-1.4c-0.6,0-0.8-0.2-0.8-0.8V14.2c0-0.8,0.2-1.1,1-1.4c1.2-0.5,2.8-0.7,4.7-0.8H70.9z"/>
	<path d="M74.9,7.4c1.2,0,1.6,0.4,1.6,1.5v0.2c0,1.2-0.4,1.6-1.6,1.6h-0.2c-1.1,0-1.6-0.4-1.6-1.6V9c0-1.1,0.4-1.5,1.6-1.5L74.9,7.4
		L74.9,7.4z M75.6,12.4c0.6,0,0.8,0.2,0.8,0.8v11.6c0,0.6-0.2,0.8-0.8,0.8h-1.4c-0.6,0-0.8-0.2-0.8-0.8V13.1c0-0.6,0.2-0.8,0.8-0.8
		L75.6,12.4L75.6,12.4z"/>
	<path d="M85.1,12c3.6,0,5.4,1.8,5.4,5.1v3.5c0,3.5-1.9,5.3-5.7,5.3c-0.6,0-1.5-0.2-2.7-0.5v4.9c0,0.6-0.2,0.8-0.8,0.8H80
		c-0.6,0-0.8-0.2-0.8-0.8V14.2c0-0.8,0.2-1.1,1-1.4C81.6,12.3,83.2,12,85.1,12z M87.6,17.2c0-1.7-0.9-2.5-2.8-2.5
		c-0.9,0-1.6,0.1-2.3,0.3c-0.2,0.1-0.3,0.2-0.3,0.3v7.6c1,0.3,1.8,0.4,2.5,0.4c2,0,2.9-0.9,2.9-2.7C87.6,20.6,87.6,17.2,87.6,17.2z"
		/>
	<path d="M96.5,9.3c0.6,0,0.8,0.2,0.8,0.8v2.3h2.9c0.6,0,0.8,0.2,0.8,0.8v1.2c0,0.6-0.2,0.8-0.8,0.8h-2.9v5.1c0,1.2,0.2,2,0.6,2.4
		s1.1,0.6,2.3,0.6c0.6,0,0.8,0.2,0.8,0.8v1.2c0,0.6-0.2,0.8-0.8,0.8c-2.1,0.1-3.6-0.3-4.5-1.1c-0.9-0.8-1.3-2.3-1.3-4.5v-5.2h-1.8
		c-0.6,0-0.8-0.2-0.8-0.8v-1.2c0-0.6,0.2-0.8,0.8-0.8h1.8v-2.3c0-0.6,0.2-0.8,0.8-0.8L96.5,9.3L96.5,9.3z"/>
	<path d="M102.5,17.1c0-3.2,2.1-5.1,5.8-5.1c3.8,0,5.9,1.9,5.9,5.1v3.8c0,3.2-2.1,5.1-5.9,5.1c-3.7,0-5.8-1.9-5.8-5.1V17.1z
		 M111.3,17.1c0-1.6-1.1-2.4-2.9-2.4c-1.9,0-2.9,0.9-2.9,2.4v3.8c0,1.5,1,2.4,2.9,2.4s2.9-0.9,2.9-2.4V17.1z"/>
</g>
<g>
	<g>
		<g>
			<g>
				<path class="st1" d="M25.6,30.4L25.6,30.4c0.1,0.1,0.2,0.1,0.2,0.2c0.3,0.2,0.8,0.3,1.5,0.3c0.4,0,0.7-0.1,0.9-0.2
					c0.8-0.4,0.6-1.3-0.4-1.5c0,0-1.9-0.3-2.3,0.3C25.3,29.8,25.3,30.1,25.6,30.4z"/>
			</g>
			<g>
				<path class="st1" d="M25.6,30.4c0.1,0.1,0.1,0.1,0.2,0.2C25.7,30.5,25.7,30.4,25.6,30.4z"/>
			</g>
			<g>
				<path class="st1" d="M22.6,31.9c1.4,0.1,2.6,0.2,3.4,0.2c0.2-0.8-0.2-1.4-0.2-1.4s0,0-0.1-0.1s-0.2-0.1-0.2-0.2l0,0
					c-0.5-0.3-1.4-0.7-2.3-0.2C22.8,30.5,22.6,31.2,22.6,31.9z"/>
			</g>
			<g>
				<path class="st2" d="M25.9,30.6c0,0,0.4,0.6,0.2,1.4c1.6,0,2.3-0.3,2.3-0.3c0-0.6-0.2-1.1-0.2-1.1c-0.2,0.1-0.5,0.2-0.9,0.2
					C26.6,30.8,26.1,30.7,25.9,30.6C25.8,30.6,25.9,30.6,25.9,30.6z"/>
			</g>
			<g>
				<path class="st1" d="M22.6,31.9c0,0.4,0.2,0.8,0.4,1c0.4,0.3,5,0.4,5.3-0.4c0.1-0.2,0.1-0.5,0.1-0.7c0,0-0.7,0.2-2.3,0.3
					C25.2,32,24.1,32,22.6,31.9z"/>
			</g>
			<g>
				<line class="st3" x1="22.6" y1="31.9" x2="22.6" y2="31.9"/>
			</g>
			<g>
				<path class="st4" d="M27.2,31.1c-1,0-1.8-0.3-2.1-0.8c-0.2-0.3-0.1-0.6,0.1-1c0.5-0.7,2.3-0.5,2.6-0.4l0,0
					C28.7,29,29,29.5,29,30C28.9,30.6,28.4,31.1,27.2,31.1z M27,29.4c-0.5,0-1.1,0.1-1.2,0.3c-0.1,0.2-0.1,0.3-0.1,0.3
					c0.1,0.2,0.7,0.5,1.6,0.5c0.8,0,1.1-0.3,1.1-0.6c0-0.2-0.2-0.5-0.6-0.5C27.5,29.4,27.2,29.4,27,29.4z"/>
			</g>
			<g>
				<path class="st4" d="M25.2,33.3c-1.1,0-2.1-0.1-2.3-0.3c-0.4-0.3-0.5-1-0.5-1.5c0-0.7,0.3-1.3,0.8-1.6c1.4-0.9,2.9,0.4,2.9,0.5
					c0,0,0,0,0.1,0.1c0,0,0.4,0.7,0.2,1.6c0,0.2-0.2,0.3-0.3,0.2c-0.2,0-0.3-0.2-0.2-0.3c0.1-0.6-0.1-1.1-0.1-1.2
					c-0.2-0.2-1.2-1-2.2-0.4c-0.3,0.2-0.5,0.6-0.5,1.2c0,0.5,0.1,0.9,0.3,1c0.2,0.1,1.2,0.2,2.5,0.2c1.7,0,2.3-0.3,2.3-0.4
					c0.2-0.7-0.1-1.6-0.1-1.6c-0.1-0.2,0-0.3,0.2-0.4s0.3,0,0.4,0.2c0,0,0.4,1.1,0.1,2c-0.1,0.2-0.3,0.4-0.7,0.5
					C27.3,33.3,26.2,33.3,25.2,33.3z"/>
			</g>
			<g>
				<path class="st4" d="M25.6,32.3c-0.8,0-1.8,0-3-0.2c-0.2,0-0.3-0.2-0.3-0.3c0-0.2,0.2-0.3,0.3-0.3c4,0.4,5.6-0.1,5.6-0.1
					c0.2,0,0.3,0,0.4,0.2c0,0.2,0,0.3-0.2,0.4C28.4,32,27.6,32.3,25.6,32.3z"/>
			</g>
			<g>
				<path class="st1" d="M27.8,25.8v3.1c0,0.2-0.1,0.4-0.2,0.6c-0.2,0.2-0.4,0.3-0.6,0.3c-0.4,0.1-0.8-0.3-0.8-0.7V26
					c0-0.2,0.1-0.5,0.3-0.6c0,0,0,0,0.1,0C27.1,24.9,27.8,25.2,27.8,25.8z"/>
			</g>
			<g>
				<path class="st4" d="M26.9,30c-0.3,0-0.5-0.1-0.7-0.3c-0.2-0.2-0.3-0.4-0.3-0.7v-3.1c0-0.3,0.2-0.6,0.4-0.9c0,0,0,0,0.1,0
					c0.3-0.3,0.8-0.3,1.1-0.1c0.3,0.2,0.5,0.5,0.5,0.9v3.1c0,0.3-0.1,0.5-0.2,0.8c-0.2,0.3-0.5,0.4-0.8,0.4C27,30,27,30,26.9,30z
					 M27.1,25.4c-0.1,0-0.2,0-0.3,0.1c0,0,0,0-0.1,0c-0.1,0.1-0.2,0.3-0.2,0.4V29c0,0.1,0,0.2,0.1,0.3c0.1,0.1,0.2,0.1,0.3,0.1
					c0.2,0,0.3,0,0.4-0.2c0.1-0.1,0.1-0.3,0.1-0.4v-3.1c0-0.2-0.1-0.3-0.2-0.4C27.2,25.4,27.1,25.4,27.1,25.4z"/>
			</g>
			<g class="st5">
				<path class="st4" d="M27.3,25.4c0,0,0,3.3,0,3.7c-0.1,0.3-0.7,0.4-0.7,0.4s-0.1,0.3,0.4,0.3s0.5,0.6,0.2,0.7
					c-0.2,0.1-0.9,0-0.9,0s0.2,0.5,0.9,0.6c0.7,0.1,0,0.8-0.4,0.8C26.4,32,26,30.5,26,30.5L25,30c0,0,0.9,1.2-0.2,1.6
					c-1,0.4-2,0.3-2,0.3s0.2,0.8,0.5,1c0.2,0.2,4.6,0,4.8-0.2c0.2-0.2,0.1-1.9,0.1-1.9s0.5-0.3,0.5-0.9s-0.6-0.7-0.6-0.7
					s-0.1-3.5-0.2-3.8C27.7,25.2,27.3,25.4,27.3,25.4z"/>
			</g>
		</g>
		<g>
			<g>
				<g>
					
						<ellipse transform="matrix(0.2273 -0.9738 0.9738 0.2273 9.7963 42.5401)" class="st2" cx="31.7" cy="15.1" rx="12.5" ry="12.3"/>
				</g>
			</g>
			<g class="st5">
				<g>
					
						<ellipse transform="matrix(0.2273 -0.9738 0.9738 0.2273 9.7963 42.5401)" class="st4" cx="31.7" cy="15.1" rx="12.5" ry="12.3"/>
				</g>
			</g>
			<g>
				<g>
					<path class="st4" d="M31.6,27.9c-0.9,0-1.9-0.1-2.8-0.3c-3.3-0.8-6-2.8-7.8-5.7c-1.8-2.9-2.3-6.3-1.5-9.6l0,0
						c0.8-3.3,2.8-6.2,5.6-8c2.9-1.8,6.2-2.4,9.5-1.6s6,2.8,7.8,5.7s2.3,6.3,1.5,9.6s-2.8,6.2-5.6,8C36.3,27.2,34,27.9,31.6,27.9z
						 M19.7,12.3l0.3,0.1c-0.7,3.2-0.2,6.5,1.5,9.2c1.7,2.8,4.3,4.7,7.4,5.4s6.3,0.2,9.1-1.6c2.7-1.7,4.6-4.4,5.4-7.6
						s0.2-6.5-1.5-9.2c-1.7-2.8-4.3-4.7-7.4-5.4S28.2,3,25.4,4.8c-2.7,1.7-4.6,4.4-5.4,7.6L19.7,12.3z"/>
				</g>
			</g>
			<g>
				<path class="st4" d="M35.7,3.5L35.7,3.5c-0.1,0-1.6-0.6-3.6-0.9c-0.2,0-0.3-0.2-0.3-0.3C31.8,2.1,32,2,32.1,2
					c2.1,0.3,3.6,0.9,3.7,0.9C35.9,3,36,3.2,35.9,3.3C35.9,3.5,35.8,3.5,35.7,3.5z"/>
			</g>
		</g>
		<g>
			<g>
				<g>
					
						<ellipse transform="matrix(0.2273 -0.9738 0.9738 0.2273 8.6996 40.2748)" class="st2" cx="29.7" cy="14.7" rx="12.5" ry="11.8"/>
				</g>
			</g>
			<g class="st5">
				<path class="st4" d="M40.8,10.1c0.4,1.9,0.5,3.9,0,5.9c-1.6,6.7-8,11-14.3,9.5c-4-0.9-7-3.9-8.3-7.7c1,4.3,4.2,7.9,8.6,8.9
					c6.3,1.5,12.7-2.8,14.3-9.5C41.8,14.8,41.6,12.3,40.8,10.1z"/>
			</g>
			<g>
				<path class="st6" d="M32.6,2.5C26.3,1,19.9,5.2,18.3,12c0,0.1-0.1,0.3-0.1,0.4C20,6,26.2,2,32.4,3.4s10,7.8,8.7,14.4
					c0-0.2,0.1-0.3,0.1-0.5C42.7,10.6,38.9,3.9,32.6,2.5z"/>
			</g>
			<g>
				<g>
					<g>
						
							<ellipse transform="matrix(0.2273 -0.9738 0.9738 0.2273 8.6996 40.2748)" class="st7" cx="29.7" cy="14.7" rx="9.8" ry="9.2"/>
					</g>
					<g class="st5">
						<path class="st4" d="M33.7,5.7c3.3,2.1,5.1,6.3,4.1,10.5c-1.2,5.3-6.2,8.6-11.2,7.4c-0.6-0.1-1.2-0.4-1.8-0.6
							c0.8,0.5,1.7,0.9,2.6,1.1c4.9,1.2,10-2.2,11.2-7.4C39.8,12.1,37.6,7.6,33.7,5.7z"/>
					</g>
					<g>
						<g>
							<g>
								<defs>
									
										<ellipse id="SVGID_1_" transform="matrix(0.2273 -0.9738 0.9738 0.2273 8.6996 40.2748)" cx="29.7" cy="14.7" rx="9.8" ry="9.2"/>
								</defs>
								<clipPath id="SVGID_2_">
									<use xlink:href="#SVGID_1_"  style="overflow:visible;"/>
								</clipPath>
								<g class="st8">
									<g>
										<path class="st1" d="M33.3,15.1c0.8-0.2,1.4-0.7,1.5-1.8l0,0c0.2-1.5-1-2.4-2.5-3l0.4-2.1l-1.2-0.4l-0.4,2
											c-0.3-0.1-0.7-0.2-1-0.3l0.4-2l-1.2-0.4l-0.4,2.1C28.5,9.1,28.3,9,28,9l0,0l-1.7-0.5L26,9.8l0.9,0.3
											c0.5,0.2,0.6,0.5,0.6,0.8L27,13.2h0.1H27l-0.7,3.3c-0.1,0.2-0.2,0.4-0.6,0.3l-0.9-0.3l-0.6,1.4l1.6,0.5
											c0.3,0.1,0.6,0.2,0.9,0.3l-0.4,2.1l1.2,0.4l0.4-2.1c0.3,0.1,0.7,0.2,1,0.3l-0.4,2.1l1.2,0.4l0.4-2.1
											c2.1,0.5,3.7,0.4,4.3-1.5C34.9,16.7,34.4,15.7,33.3,15.1z M29.7,11.2c0.7,0.2,2.9,0.7,2.6,2.1c-0.3,1.4-2.5,0.6-3.1,0.4
											L29.7,11.2z M32,17.4c-0.3,1.6-2.9,0.6-3.7,0.3l0.6-2.8C29.7,15.2,32.4,15.8,32,17.4L32,17.4z"/>
									</g>
								</g>
							</g>
						</g>
						<g>
							<g>
								<defs>
									
										<ellipse id="SVGID_3_" transform="matrix(0.2273 -0.9738 0.9738 0.2273 8.6996 40.2748)" cx="29.7" cy="14.7" rx="9.8" ry="9.2"/>
								</defs>
								<clipPath id="SVGID_4_">
									<use xlink:href="#SVGID_3_"  style="overflow:visible;"/>
								</clipPath>
								<g class="st9">
									<g>
										<g>
											<path class="st2" d="M33.3,15.1c0.8-0.2,1.4-0.7,1.5-1.8l0,0c0.2-1.5-1-2.4-2.5-3l0.4-2.1l-1.2-0.4l-0.4,2
												c-0.3-0.1-0.7-0.2-1-0.3l0.4-2l-1.2-0.4l-0.4,2.1C28.5,9.1,28.3,9,28,9l0,0l-1.7-0.5L26,9.8l0.9,0.3
												c0.5,0.2,0.6,0.5,0.6,0.8l-1.2,5.7c-0.1,0.2-0.2,0.4-0.6,0.3l-0.9-0.3L24.2,18l1.6,0.5c0.3,0.1,0.6,0.2,0.9,0.3l-0.4,2.1
												l1.2,0.4l0.4-2.1c0.3,0.1,0.7,0.2,1,0.3l-0.4,2.1l1.2,0.4l0.4-2.1c2.1,0.5,3.7,0.4,4.3-1.5
												C34.9,16.7,34.4,15.7,33.3,15.1z M29.7,11.2c0.7,0.2,2.9,0.7,2.6,2.1c-0.3,1.4-2.5,0.6-3.1,0.4L29.7,11.2z M32,17.4
												c-0.3,1.6-2.9,0.6-3.7,0.3l0.6-2.8C29.7,15.2,32.4,15.8,32,17.4L32,17.4z"/>
										</g>
									</g>
									<g>
										<path class="st10" d="M29.8,22C29.7,22,29.7,22,29.8,22l-1.3-0.4c-0.1,0-0.1-0.1-0.1-0.2l0.4-1.9
											c-0.2-0.1-0.4-0.1-0.6-0.2l-0.4,1.9c0,0,0,0.1-0.1,0.1h-0.1l-1.2-0.4c-0.1,0-0.1-0.1-0.1-0.2l0.4-1.9
											c-0.1,0-0.1,0-0.2-0.1c-0.2-0.1-0.4-0.1-0.5-0.2L24.4,18c0,0-0.1,0-0.1-0.1v-0.1l0.6-1.4c0-0.1,0.1-0.1,0.2-0.1
											c0.4,0.1,0.8,0.2,0.9,0.3l0,0c0.1,0,0.3,0,0.3-0.2l1.2-5.6c0-0.3-0.1-0.5-0.5-0.6l0,0c-0.1,0-0.5-0.2-0.9-0.3
											C26,9.9,26,9.8,26,9.7l0.3-1.3c0,0,0-0.1,0.1-0.1h0.1l1.7,0.5l0,0c0.2,0.1,0.4,0.1,0.6,0.2l0.4-1.9c0,0,0-0.1,0.1-0.1h0.1
											l1.2,0.4c0.1,0,0.1,0.1,0.1,0.2l-0.4,1.9c0.2,0.1,0.4,0.1,0.6,0.2l0.4-1.8c0,0,0-0.1,0.1-0.1h0.1L32.7,8
											c0.1,0,0.1,0.1,0.1,0.2l-0.4,1.9c1.2,0.5,2.7,1.4,2.5,3.2l0,0c-0.1,0.9-0.5,1.6-1.3,1.8c1.1,0.8,1.4,1.8,1,3.1
											c-0.7,2.2-2.5,2.1-4.3,1.7l-0.4,1.9C29.9,21.9,29.9,22,29.8,22L29.8,22z M28.7,21.3l0.9,0.3l0.4-1.9c0,0,0-0.1,0.1-0.1
											h0.1c2.4,0.6,3.6,0.2,4.1-1.4c0.4-1.3,0.1-2.2-1.1-2.9c-0.1,0-0.1-0.1-0.1-0.2c0-0.1,0.1-0.1,0.1-0.1
											c0.8-0.2,1.3-0.7,1.4-1.6l0,0c0.1-1.2-0.6-2.1-2.4-2.9c-0.1,0-0.1-0.1-0.1-0.2l0.4-1.9L31.6,8l-0.4,1.8c0,0,0,0.1-0.1,0.1
											H31c-0.3-0.1-0.7-0.2-1-0.3c-0.1,0-0.1-0.1-0.1-0.2l0.4-1.9l-0.9-0.3l-0.4,2c0,0,0,0.1-0.1,0.1h-0.1
											c-0.3-0.1-0.5-0.2-0.8-0.2l0,0l-1.5-0.5l-0.2,1c0.4,0.1,0.6,0.2,0.7,0.2l0,0c0.6,0.2,0.7,0.7,0.7,0.9l0,0l-1.2,5.7l0,0
											c-0.1,0.3-0.4,0.5-0.8,0.4l0,0c-0.1,0-0.3-0.1-0.7-0.2l-0.4,1.1l1.4,0.4c0.2,0.1,0.4,0.1,0.5,0.2c0.1,0,0.2,0.1,0.3,0.1
											c0.1,0,0.1,0.1,0.1,0.2l-0.4,1.9l0.9,0.3l0.4-1.9c0,0,0-0.1,0.1-0.1H28c0.3,0.1,0.6,0.2,1,0.3c0.1,0,0.1,0.1,0.1,0.2
											L28.7,21.3z M30.7,18.5c-0.8,0-1.7-0.3-2.2-0.5c-0.1,0-0.2-0.1-0.2-0.1c-0.1,0-0.1-0.1-0.1-0.2l0.6-2.8c0,0,0-0.1,0.1-0.1
											H29c0.1,0,0.2,0.1,0.3,0.1c1.1,0.3,3.3,0.9,3,2.6l0,0c-0.1,0.4-0.3,0.6-0.6,0.8C31.4,18.4,31.1,18.5,30.7,18.5z
											 M28.5,17.6C28.5,17.6,28.6,17.7,28.5,17.6c0.8,0.3,2.3,0.7,3,0.3c0.2-0.1,0.3-0.3,0.4-0.6l0,0c0.3-1.3-1.8-1.9-2.7-2.1
											h-0.1L28.5,17.6z M31.1,14.3c-0.6,0-1.4-0.2-1.8-0.4c-0.1,0-0.1,0-0.2-0.1c-0.1,0-0.1-0.1-0.1-0.2l0.5-2.5
											c0,0,0-0.1,0.1-0.1h0.1c0.1,0,0.2,0,0.2,0.1c0.9,0.3,2.8,0.8,2.5,2.3c-0.1,0.3-0.3,0.6-0.5,0.8
											C31.7,14.3,31.4,14.3,31.1,14.3z M29.4,13.6L29.4,13.6c0.6,0.2,1.8,0.6,2.4,0.2c0.2-0.1,0.3-0.3,0.4-0.5
											c0.2-1-0.9-1.5-2.2-1.9h-0.1L29.4,13.6z"/>
									</g>
								</g>
							</g>
						</g>
					</g>
				</g>
			</g>
			<g>
				<g>
					<path class="st4" d="M29.4,27.4c-0.9,0-1.7-0.1-2.6-0.3c-3.1-0.7-5.8-2.7-7.4-5.6c-1.7-2.9-2.1-6.3-1.4-9.6
						c0.8-3.3,2.7-6.2,5.5-8s6-2.5,9.2-1.7s5.8,2.7,7.4,5.6c1.7,2.9,2.1,6.3,1.4,9.6C40.1,23.3,35,27.4,29.4,27.4z M30,2.5
						c-2.2,0-4.3,0.7-6.2,1.9c-2.6,1.8-4.5,4.5-5.2,7.7s-0.3,6.4,1.3,9.2c1.6,2.7,4.1,4.6,7.1,5.3c0.8,0.2,1.6,0.3,2.5,0.3
						c5.3,0,10.2-3.9,11.5-9.6c0.7-3.2,0.3-6.4-1.3-9.2c-1.6-2.7-4.1-4.6-7.1-5.3C31.7,2.6,30.9,2.5,30,2.5z"/>
				</g>
			</g>
			<g>
				<g>
					<path class="st4" d="M29.5,24.6c-0.7,0-1.3-0.1-2-0.2C25,23.8,23,22.2,21.7,20s-1.7-4.9-1.1-7.5C21.9,7.2,27,3.8,32,4.9
						c2.4,0.6,4.5,2.1,5.8,4.4c1.3,2.2,1.7,4.9,1.1,7.5C37.8,21.4,33.8,24.6,29.5,24.6z M30,5c-4.2,0-8,3.1-9,7.5
						c-0.6,2.5-0.2,5.1,1,7.2c1.2,2.2,3.2,3.6,5.6,4.2c0.6,0.2,1.3,0.2,1.9,0.2c4.2,0,8-3.1,9-7.5c0.6-2.5,0.2-5.1-1-7.2
						c-1.2-2.2-3.2-3.6-5.6-4.2C31.3,5.1,30.6,5,30,5z"/>
				</g>
			</g>
		</g>
		<g>
			<g>
				<path class="st1" d="M35.1,31.1L35.1,31.1c0.1,0.1,0.2,0.1,0.2,0.2c0.3,0.2,0.8,0.3,1.5,0.3c0.4,0,0.7-0.1,0.9-0.2
					c0.8-0.4,0.6-1.3-0.4-1.5c0,0-1.9-0.3-2.3,0.3C34.9,30.6,34.9,30.9,35.1,31.1z"/>
			</g>
			<g>
				<path class="st1" d="M35.1,31.1c0.1,0.1,0.1,0.1,0.2,0.2C35.3,31.3,35.2,31.2,35.1,31.1z"/>
			</g>
			<g>
				<path class="st1" d="M32.2,32.6c1.4,0.1,2.6,0.2,3.4,0.2c0.2-0.8-0.2-1.4-0.2-1.4s0,0-0.1-0.1s-0.2-0.1-0.2-0.2l0,0
					c-0.5-0.3-1.4-0.7-2.3-0.2C32.4,31.2,32.2,32,32.2,32.6z"/>
			</g>
			<g>
				<path class="st2" d="M35.4,31.4c0,0,0.4,0.6,0.2,1.4c1.6,0,2.3-0.3,2.3-0.3c0-0.6-0.2-1.1-0.2-1.1c-0.2,0.1-0.5,0.2-0.9,0.2
					C36.2,31.6,35.7,31.5,35.4,31.4C35.4,31.3,35.4,31.4,35.4,31.4z"/>
			</g>
			<g>
				<path class="st1" d="M32.2,32.6c0,0.4,0.2,0.8,0.4,1c0.4,0.3,5,0.4,5.3-0.4C38,33,38,32.8,38,32.5c0,0-0.7,0.2-2.3,0.3
					C34.8,32.8,33.7,32.8,32.2,32.6z"/>
			</g>
			<g>
				<line class="st3" x1="32.2" y1="32.6" x2="32.2" y2="32.6"/>
			</g>
			<g>
				<path class="st4" d="M36.8,31.9c-1,0-1.8-0.3-2.1-0.8c-0.2-0.3-0.1-0.6,0.1-1c0.5-0.7,2.3-0.5,2.6-0.4l0,0
					c0.8,0.1,1.1,0.7,1.1,1.1C38.5,31.3,38,31.9,36.8,31.9z M36.5,30.2c-0.5,0-1.1,0.1-1.2,0.3c-0.1,0.2-0.1,0.3-0.1,0.3
					c0.1,0.2,0.7,0.5,1.6,0.5c0.8,0,1.1-0.3,1.1-0.6c0-0.2-0.2-0.5-0.6-0.5C37.1,30.2,36.8,30.2,36.5,30.2z"/>
			</g>
			<g>
				<path class="st4" d="M34.8,34.1c-1.1,0-2.1-0.1-2.3-0.3c-0.4-0.3-0.5-1-0.5-1.5c0-0.7,0.3-1.3,0.8-1.6c1.4-0.9,2.9,0.4,2.9,0.5
					c0,0,0,0,0.1,0.1c0,0,0.4,0.7,0.2,1.6c0,0.2-0.2,0.3-0.3,0.2c-0.2,0-0.3-0.2-0.2-0.3c0.1-0.6-0.1-1.1-0.2-1.2
					c-0.2-0.2-1.2-1-2.2-0.4c-0.3,0.2-0.5,0.6-0.5,1.2c0,0.5,0.1,0.9,0.3,1s1.2,0.2,2.5,0.2c1.7,0,2.3-0.3,2.3-0.4
					c0.2-0.7-0.1-1.6-0.1-1.6c-0.1-0.2,0-0.3,0.2-0.4s0.3,0,0.4,0.2c0,0,0.4,1.1,0.1,2c-0.1,0.2-0.3,0.4-0.7,0.5
					C36.9,34,35.8,34.1,34.8,34.1z"/>
			</g>
			<g>
				<path class="st4" d="M35.2,33.1c-0.8,0-1.8,0-3-0.2c-0.2,0-0.3-0.2-0.3-0.3c0-0.2,0.2-0.3,0.3-0.3c4,0.4,5.6-0.1,5.6-0.1
					c0.2,0,0.3,0,0.4,0.2c0,0.2,0,0.3-0.2,0.4C38,32.8,37.2,33.1,35.2,33.1z"/>
			</g>
			<g>
				<path class="st1" d="M37.4,26.6v3.1c0,0.2-0.1,0.4-0.2,0.6c-0.2,0.2-0.4,0.3-0.6,0.3c-0.4,0.1-0.8-0.3-0.8-0.7v-3.1
					c0-0.2,0.1-0.5,0.3-0.6c0,0,0,0,0.1,0C36.7,25.6,37.4,26,37.4,26.6z"/>
			</g>
			<g>
				<path class="st4" d="M36.5,30.8c-0.3,0-0.5-0.1-0.7-0.3c-0.2-0.2-0.3-0.4-0.3-0.7v-3.1c0-0.3,0.2-0.6,0.4-0.9c0,0,0,0,0.1,0
					c0.3-0.3,0.8-0.3,1.1-0.1c0.3,0.2,0.5,0.5,0.5,0.9v3.1c0,0.3-0.1,0.5-0.2,0.8C37.2,30.8,36.9,30.9,36.5,30.8
					C36.6,30.8,36.6,30.8,36.5,30.8z M36.7,26.2c-0.1,0-0.2,0-0.3,0.1c0,0,0,0-0.1,0c-0.1,0.1-0.2,0.3-0.2,0.4v3.1
					c0,0.1,0,0.2,0.1,0.3c0.1,0.1,0.2,0.1,0.3,0.1c0.2,0,0.3,0,0.4-0.2c0.1-0.1,0.1-0.3,0.1-0.4v-3.1c0-0.2-0.1-0.3-0.2-0.4
					C36.8,26.2,36.7,26.2,36.7,26.2z"/>
			</g>
		</g>
		<g>
			<g>
				<path class="st1" d="M39.7,7.9c0.4-0.1,0.7,0.4,0.7,0.4S40.2,9,40.7,9.8c0.4,0.8,1.3,1,1.3,1s-0.1,0.8,0.4,0.9
					c0.5,0.2,2.4-0.8,2.4-1.5c-0.1-0.7-0.5-0.7-0.5-0.7s0.2-1.9-0.5-3.6c-0.8-1.7-3.3-1.6-3-0.5h-0.1c-1.1,0.2-0.8,1-0.8,1.1
					c-0.2,0-0.3,0.1-0.4,0.2C38.8,7.2,39.3,8,39.7,7.9z"/>
			</g>
			<g>
				<path class="st4" d="M42.6,12c-0.1,0-0.2,0-0.3,0c-0.5-0.2-0.6-0.6-0.6-1c-0.3-0.1-0.9-0.4-1.3-1c-0.3-0.6-0.3-1.3-0.3-1.6
					c-0.1-0.1-0.2-0.2-0.4-0.2l0,0c-0.3,0.1-0.6-0.1-0.8-0.5c-0.2-0.4-0.1-0.8,0.2-1.1c0.1-0.1,0.2-0.1,0.3-0.2c0-0.2,0-0.3,0.1-0.5
					c0.1-0.3,0.4-0.5,0.8-0.6c0-0.3,0.2-0.6,0.6-0.8c0.8-0.3,2.4,0,3,1.3c0.6,1.4,0.6,2.9,0.6,3.5c0.2,0.1,0.5,0.4,0.5,0.9
					c0,0.3-0.2,0.7-0.7,1C43.9,11.6,43.1,12,42.6,12z M39.8,7.6c0.5,0,0.8,0.4,0.9,0.5c0.1,0.1,0.1,0.2,0.1,0.2S40.6,9,41,9.6
					c0.3,0.6,1.1,0.8,1.1,0.8c0.1,0,0.2,0.2,0.2,0.3c0,0-0.1,0.5,0.2,0.6c0.2,0.1,0.9-0.2,1.6-0.6c0.3-0.3,0.4-0.5,0.4-0.5
					c0-0.4-0.2-0.4-0.3-0.4S44,9.8,44,9.7s-0.1-0.1,0-0.2c0,0,0.2-1.8-0.5-3.4c-0.4-1-1.6-1.3-2.2-1c-0.4,0-0.3,0.2-0.3,0.3
					s0,0.2,0,0.2c0,0.1-0.1,0.1-0.2,0.1h-0.1c-0.3,0.1-0.5,0.2-0.6,0.3c-0.1,0.2,0,0.3,0,0.3c0,0.1,0,0.2,0,0.2
					c0,0.1-0.1,0.1-0.2,0.1c-0.1,0-0.2,0.1-0.3,0.1c-0.2,0.2-0.1,0.4-0.1,0.4c0.1,0.1,0.2,0.2,0.2,0.2C39.7,7.6,39.7,7.6,39.8,7.6z
					 M39.7,7.9L39.7,7.9L39.7,7.9z"/>
			</g>
			<g>
				<path class="st4" d="M39.7,6.3c0.3,0,0.6,0.1,0.9,0.2c0.3,0.1,0.5,0.3,0.6,0.6v0.1h-0.1c-0.3-0.3-0.9-0.5-1.3-0.4
					C39.4,7,39.3,6.3,39.7,6.3L39.7,6.3z"/>
			</g>
			<g>
				<path class="st4" d="M42.3,6.4c-0.4-0.4-1-0.7-1.6-0.6c-0.2,0-0.3-0.1-0.3-0.3c0-0.2,0.1-0.3,0.3-0.3s0.4,0,0.6,0.1
					c0.5,0.2,0.9,0.6,1.2,1C42.5,6.4,42.4,6.5,42.3,6.4L42.3,6.4z"/>
			</g>
			<g>
				<path class="st4" d="M39.8,6.9c-0.1,0-0.2-0.1-0.3-0.2l0,0c-0.1-0.1,0-0.3,0.1-0.4s0.3,0,0.4,0.1c0.1,0.1,0,0.3-0.1,0.4
					C39.9,6.9,39.8,6.9,39.8,6.9z"/>
			</g>
		</g>
	</g>
	<g>
		<g>
			<path class="st1" d="M16.7,14.8c-0.1-0.2,1.6-2.4,1.6-2.4L16.9,11c0,0-2.2,2.3-2.6,4.2c-0.4,1.9,3.9,2.9,3.9,2.9
				s-0.2-0.9-0.3-2.2C18,15.7,16.8,15,16.7,14.8z"/>
		</g>
		<g>
			<path class="st4" d="M18.3,18.2C18.3,18.2,18.2,18.2,18.3,18.2c-0.2,0-3.1-0.7-4-2C14,15.8,14,15.4,14,15c0.4-2,2.6-4.2,2.7-4.3
				s0.3-0.1,0.4,0s0.1,0.3,0,0.4c0,0-2.1,2.2-2.5,4c-0.1,0.2,0,0.5,0.1,0.7c0.6,0.9,2.3,1.4,3.1,1.7c-0.1-0.4-0.2-0.9-0.2-1.7
				c-0.4-0.3-1.1-0.7-1.2-1c-0.1-0.2-0.2-0.4,1.6-2.7c0.1-0.1,0.3-0.1,0.4,0s0.1,0.3,0,0.4c-0.6,0.8-1.4,1.8-1.5,2.2
				c0.2,0.2,0.7,0.5,1.1,0.8c0.1,0,0.1,0.1,0.1,0.2c0.1,1.3,0.3,2.2,0.3,2.2C18.4,18,18.4,18.1,18.3,18.2
				C18.4,18.2,18.4,18.2,18.3,18.2z"/>
		</g>
		<g>
			<path class="st1" d="M21.9,9c-0.4-0.1-0.8,0.3-0.8,0.3s0.1,0.8-0.4,1.5s-1.4,0.8-1.4,0.8s0,0.8-0.6,0.9c-0.5,0.1-2.3-1.1-2.1-1.8
				c0.2-0.7,0.6-0.6,0.6-0.6s0-1.9,1-3.4s3.5-1.1,3,0h0.1c1.1,0.2,0.7,1,0.7,1c0.1,0.1,0.3,0.1,0.4,0.3C22.8,8.5,22.3,9.2,21.9,9z"
				/>
		</g>
		<g>
			<path class="st4" d="M18.6,12.7c-0.6,0-1.4-0.6-1.9-1c-0.4-0.4-0.6-0.8-0.5-1.1c0.1-0.5,0.4-0.7,0.6-0.8c0-0.6,0.2-2.1,1.1-3.3
				c0.8-1.2,2.3-1.3,3.1-0.9c0.4,0.2,0.5,0.5,0.5,0.9c0.4,0.2,0.6,0.4,0.7,0.7c0.1,0.2,0.1,0.4,0,0.5c0.1,0.1,0.2,0.1,0.2,0.2
				c0.3,0.3,0.3,0.8,0.1,1.2c-0.2,0.3-0.6,0.5-0.9,0.4l0,0c-0.1,0-0.3,0-0.4,0.1c0,0.3-0.1,0.9-0.5,1.5s-1.1,0.8-1.4,0.8
				C19.2,12.3,19,12.7,18.6,12.7C18.7,12.7,18.6,12.7,18.6,12.7z M17.1,10.3c0,0-0.2,0-0.3,0.4c0,0.1,0,0.3,0.3,0.6
				c0.5,0.6,1.3,0.9,1.5,0.9c0.3-0.1,0.3-0.6,0.3-0.6c0-0.2,0.1-0.3,0.3-0.3c0,0,0.8-0.1,1.2-0.6c0.4-0.6,0.4-1.3,0.4-1.3
				c0-0.1,0-0.2,0.1-0.2C21,9,21.4,8.6,22,8.8c0,0,0.1,0,0.2-0.1s0.1-0.3,0-0.5C22.1,8.1,22,8,21.9,8s-0.1-0.1-0.2-0.2
				c0-0.1,0-0.2,0-0.2s0.1-0.2,0-0.3c-0.1-0.2-0.2-0.3-0.5-0.4h-0.1c-0.1,0-0.1-0.1-0.2-0.2c0-0.1,0-0.2,0-0.2
				c0-0.1,0.1-0.2-0.2-0.4c-0.5-0.3-1.8-0.2-2.3,0.7c-0.9,1.4-1,3.3-1,3.3c0,0.1,0,0.2-0.1,0.2C17.3,10.3,17.2,10.3,17.1,10.3
				L17.1,10.3z"/>
		</g>
		<g>
			<path class="st4" d="M21.9,8c-0.4-0.2-1-0.1-1.3,0.2h-0.1V8.1c0.4-0.5,1-0.7,1.6-0.6C22.5,7.5,22.3,8.2,21.9,8L21.9,8z"/>
		</g>
		<g>
			<path class="st4" d="M19.4,7.1c0.4-0.6,1.1-0.9,1.9-0.9c0.4,0,0.3,0.7-0.1,0.6C20.6,6.6,19.9,6.8,19.4,7.1
				C19.4,7.2,19.3,7.2,19.4,7.1L19.4,7.1z"/>
		</g>
		<g>
			<path class="st4" d="M22,8c-0.1,0-0.1,0-0.2,0c-0.1-0.1-0.2-0.3-0.1-0.4l0,0c0.1-0.1,0.3-0.2,0.4-0.1s0.2,0.3,0.1,0.4
				C22.2,8,22.1,8,22,8z"/>
		</g>
		<g>
			<path class="st4" d="M19.1,11.8c-0.4-0.2-0.8-0.6-1.1-1v-0.1h0.1c0.3,0.3,0.8,0.4,1.2,0.5C19.8,11.3,19.6,12,19.1,11.8L19.1,11.8
				z"/>
		</g>
	</g>
	<g class="st5">
		<path class="st4" d="M22.1,7.8c0,0,0.4,0.4,0.2,0.7c-0.1,0.3-1.3-0.2-1.8,0.6c0,0,0,1.1-0.8,1.7c-0.8,0.5-1.4,0.3-1.4,0.3
			s0.4,0.3,0.2,0.6c-0.1,0.3-1.9-1.1-1.9-1.1s-0.3,0.2-0.1,0.5l-0.6,0.8c0,0,0.8,0.3,0.9,1s-0.1,1.3-0.1,1.3l-0.2,0.5
			c0,0,0.5,1.1,0.2,1.5s-2.1-0.1-2.1-0.1s1.8,1.4,3.6,1.6c0,0-0.3-3,0.3-4.8c0,0,1,0.1,1.2-1.1c0,0,1,0.4,1.4-0.7S22.3,9,22.3,9
			S23.1,8.4,22.1,7.8z"/>
	</g>
	<g class="st5">
		<path class="st4" d="M36.6,25.9c0,0,0.2,3.7,0.1,4.1s-0.5,0.4-0.5,0.4s0.4,0.3,0.8,0.3c0.3-0.1,0.5,0.6-0.1,0.7
			c-0.6,0.2,0.4,0.5,0.1,0.8c-0.3,0.3-1.3,0.3-1.3,0.3s0.1-0.7-0.4-1.1S34.6,31,34.6,31s0.5,0.6,0.4,1c-0.1,0.3-2.6,0.2-2.6,0.2
			s-0.2,1.1,0.6,1.4c0.8,0.3,4.8,0,4.9-0.1s0-2,0-2s0.3-0.5,0.3-0.7c0-0.3-0.7-0.7-0.7-0.7s-0.1-3.7-0.3-3.9S36.6,25.9,36.6,25.9z"
			/>
	</g>
</g>
</svg>
